REM DIRINDEX 1\2,1\3
REM DIRNAME cjc039,folder01,folder02
TITLE ""
FILE "2781-2800.mp3" MP3
  TRACK 01 AUDIO
    TITLE "0:"
    INDEX 01 00:00:00
  TRACK 02 AUDIO
    TITLE "2:cjc039_4561"
    INDEX 01 00:00:25
  TRACK 03 AUDIO
    TITLE "0:"
    INDEX 01 00:01:66
  TRACK 04 AUDIO
    TITLE "3:cjc039_4562"
    INDEX 01 00:02:43
  TRACK 05 AUDIO
    TITLE "0:"
    INDEX 01 00:05:65
  TRACK 06 AUDIO
    TITLE "2:cjc039_4563"
    INDEX 01 00:07:43
  TRACK 07 AUDIO
    TITLE "0:"
    INDEX 01 00:08:54
  TRACK 08 AUDIO
    TITLE "3:cjc039_4564"
    INDEX 01 00:09:34
  TRACK 09 AUDIO
    TITLE "0:"
    INDEX 01 00:12:46
  TRACK 10 AUDIO
    TITLE "2:cjc039_4565"
    INDEX 01 00:14:23
  TRACK 11 AUDIO
    TITLE "0:"
    INDEX 01 00:15:52
  TRACK 12 AUDIO
    TITLE "3:cjc039_4566"
    INDEX 01 00:16:32
  TRACK 13 AUDIO
    TITLE "0:"
    INDEX 01 00:19:52
  TRACK 14 AUDIO
    TITLE "2:cjc039_4567"
    INDEX 01 00:21:23
  TRACK 15 AUDIO
    TITLE "0:"
    INDEX 01 00:22:44
  TRACK 16 AUDIO
    TITLE "3:cjc039_4568"
    INDEX 01 00:23:18
  TRACK 17 AUDIO
    TITLE "0:"
    INDEX 01 00:26:20
  TRACK 18 AUDIO
    TITLE "2:cjc039_4569"
    INDEX 01 00:28:00
  TRACK 19 AUDIO
    TITLE "0:"
    INDEX 01 00:29:03
  TRACK 20 AUDIO
    TITLE "3:cjc039_4570"
    INDEX 01 00:29:56
  TRACK 21 AUDIO
    TITLE "0:"
    INDEX 01 00:32:37
  TRACK 22 AUDIO
    TITLE "2:cjc039_4571"
    INDEX 01 00:34:12
  TRACK 23 AUDIO
    TITLE "0:"
    INDEX 01 00:35:35
  TRACK 24 AUDIO
    TITLE "3:cjc039_4572"
    INDEX 01 00:36:13
  TRACK 25 AUDIO
    TITLE "0:"
    INDEX 01 00:40:07
  TRACK 26 AUDIO
    TITLE "2:cjc039_4573"
    INDEX 01 00:41:59
  TRACK 27 AUDIO
    TITLE "0:"
    INDEX 01 00:42:49
  TRACK 28 AUDIO
    TITLE "3:cjc039_4574"
    INDEX 01 00:43:25
  TRACK 29 AUDIO
    TITLE "0:"
    INDEX 01 00:46:51
  TRACK 30 AUDIO
    TITLE "2:cjc039_4575"
    INDEX 01 00:48:24
  TRACK 31 AUDIO
    TITLE "0:"
    INDEX 01 00:49:67
  TRACK 32 AUDIO
    TITLE "3:cjc039_4576"
    INDEX 01 00:50:44
  TRACK 33 AUDIO
    TITLE "0:"
    INDEX 01 00:54:60
  TRACK 34 AUDIO
    TITLE "2:cjc039_4577"
    INDEX 01 00:56:39
  TRACK 35 AUDIO
    TITLE "0:"
    INDEX 01 00:57:60
  TRACK 36 AUDIO
    TITLE "3:cjc039_4578"
    INDEX 01 00:58:40
  TRACK 37 AUDIO
    TITLE "0:"
    INDEX 01 01:01:42
  TRACK 38 AUDIO
    TITLE "2:cjc039_4579"
    INDEX 01 01:03:22
  TRACK 39 AUDIO
    TITLE "0:"
    INDEX 01 01:04:37
  TRACK 40 AUDIO
    TITLE "3:cjc039_4580"
    INDEX 01 01:05:19
  TRACK 41 AUDIO
    TITLE "0:"
    INDEX 01 01:08:38
  TRACK 42 AUDIO
    TITLE "2:cjc039_4581"
    INDEX 01 01:10:18
  TRACK 43 AUDIO
    TITLE "0:"
    INDEX 01 01:11:21
  TRACK 44 AUDIO
    TITLE "3:cjc039_4582"
    INDEX 01 01:11:70
  TRACK 45 AUDIO
    TITLE "0:"
    INDEX 01 01:15:33
  TRACK 46 AUDIO
    TITLE "2:cjc039_4583"
    INDEX 01 01:17:10
  TRACK 47 AUDIO
    TITLE "0:"
    INDEX 01 01:18:33
  TRACK 48 AUDIO
    TITLE "3:cjc039_4584"
    INDEX 01 01:19:11
  TRACK 49 AUDIO
    TITLE "0:"
    INDEX 01 01:22:03
  TRACK 50 AUDIO
    TITLE "2:cjc039_4585"
    INDEX 01 01:23:50
  TRACK 51 AUDIO
    TITLE "0:"
    INDEX 01 01:24:55
  TRACK 52 AUDIO
    TITLE "3:cjc039_4586"
    INDEX 01 01:25:35
  TRACK 53 AUDIO
    TITLE "0:"
    INDEX 01 01:28:41
  TRACK 54 AUDIO
    TITLE "2:cjc039_4587"
    INDEX 01 01:30:17
  TRACK 55 AUDIO
    TITLE "0:"
    INDEX 01 01:31:41
  TRACK 56 AUDIO
    TITLE "3:cjc039_4588"
    INDEX 01 01:32:17
  TRACK 57 AUDIO
    TITLE "0:"
    INDEX 01 01:35:55
  TRACK 58 AUDIO
    TITLE "2:cjc039_4589"
    INDEX 01 01:37:30
  TRACK 59 AUDIO
    TITLE "0:"
    INDEX 01 01:38:40
  TRACK 60 AUDIO
    TITLE "3:cjc039_4590"
    INDEX 01 01:39:19
  TRACK 61 AUDIO
    TITLE "0:"
    INDEX 01 01:41:54
  TRACK 62 AUDIO
    TITLE "2:cjc039_4591"
    INDEX 01 01:43:27
  TRACK 63 AUDIO
    TITLE "0:"
    INDEX 01 01:45:18
  TRACK 64 AUDIO
    TITLE "3:cjc039_4592"
    INDEX 01 01:45:63
  TRACK 65 AUDIO
    TITLE "0:"
    INDEX 01 01:49:35
  TRACK 66 AUDIO
    TITLE "2:cjc039_4593"
    INDEX 01 01:51:09
  TRACK 67 AUDIO
    TITLE "0:"
    INDEX 01 01:52:08
  TRACK 68 AUDIO
    TITLE "3:cjc039_4594"
    INDEX 01 01:52:63
  TRACK 69 AUDIO
    TITLE "0:"
    INDEX 01 01:56:39
  TRACK 70 AUDIO
    TITLE "2:cjc039_4595"
    INDEX 01 01:58:15
  TRACK 71 AUDIO
    TITLE "0:"
    INDEX 01 01:59:36
  TRACK 72 AUDIO
    TITLE "3:cjc039_4596"
    INDEX 01 02:00:14
  TRACK 73 AUDIO
    TITLE "0:"
    INDEX 01 02:04:23
  TRACK 74 AUDIO
    TITLE "2:cjc039_4597"
    INDEX 01 02:06:03
  TRACK 75 AUDIO
    TITLE "0:"
    INDEX 01 02:07:10
  TRACK 76 AUDIO
    TITLE "3:cjc039_4598"
    INDEX 01 02:07:69
  TRACK 77 AUDIO
    TITLE "0:"
    INDEX 01 02:11:04
  TRACK 78 AUDIO
    TITLE "2:cjc039_4599"
    INDEX 01 02:12:48
  TRACK 79 AUDIO
    TITLE "0:"
    INDEX 01 02:13:65
  TRACK 80 AUDIO
    TITLE "3:cjc039_4600"
    INDEX 01 02:14:39
  TRACK 81 AUDIO
    TITLE "0:"
    INDEX 01 02:17:65
